<mxfile host="Electron" modified="2024-12-19T19:39:54.423Z" agent="Mozilla/5.0 (Windows NT 10.0; Win64; x64) AppleWebKit/537.36 (KHTML, like Gecko) draw.io/24.5.3 Chrome/124.0.6367.207 Electron/30.0.6 Safari/537.36" etag="fbj489aXt7RGaCrf9vNn" version="24.5.3" type="device" pages="3">
  <diagram name="Page-1" id="c4acf3e9-155e-7222-9cf6-157b1a14988f">
    <mxGraphModel dx="532" dy="698" grid="0" gridSize="10" guides="1" tooltips="1" connect="1" arrows="1" fold="1" page="1" pageScale="1" pageWidth="850" pageHeight="1100" background="none" math="0" shadow="0">
      <root>
        <mxCell id="0" />
        <mxCell id="1" parent="0" />
        <mxCell id="LSWfNtZpds12nJW4Uo5Y-82" style="rounded=0;orthogonalLoop=1;jettySize=auto;html=1;endArrow=none;endFill=0;startArrow=none;startFill=0;" parent="1" source="LSWfNtZpds12nJW4Uo5Y-1" target="LSWfNtZpds12nJW4Uo5Y-25" edge="1">
          <mxGeometry relative="1" as="geometry" />
        </mxCell>
        <mxCell id="LSWfNtZpds12nJW4Uo5Y-89" value="1" style="edgeLabel;html=1;align=center;verticalAlign=middle;resizable=0;points=[];" parent="LSWfNtZpds12nJW4Uo5Y-82" vertex="1" connectable="0">
          <mxGeometry x="-0.8275" relative="1" as="geometry">
            <mxPoint x="-3" y="-9" as="offset" />
          </mxGeometry>
        </mxCell>
        <mxCell id="LSWfNtZpds12nJW4Uo5Y-90" value="&lt;font style=&quot;font-size: 10px;&quot;&gt;*&lt;/font&gt;" style="edgeLabel;html=1;align=center;verticalAlign=middle;resizable=0;points=[];" parent="LSWfNtZpds12nJW4Uo5Y-82" vertex="1" connectable="0">
          <mxGeometry x="0.8873" y="1" relative="1" as="geometry">
            <mxPoint y="-8" as="offset" />
          </mxGeometry>
        </mxCell>
        <mxCell id="LSWfNtZpds12nJW4Uo5Y-83" style="rounded=0;orthogonalLoop=1;jettySize=auto;html=1;endArrow=none;endFill=0;startArrow=none;startFill=0;" parent="1" source="LSWfNtZpds12nJW4Uo5Y-1" target="LSWfNtZpds12nJW4Uo5Y-13" edge="1">
          <mxGeometry relative="1" as="geometry" />
        </mxCell>
        <mxCell id="LSWfNtZpds12nJW4Uo5Y-91" value="1" style="edgeLabel;html=1;align=center;verticalAlign=middle;resizable=0;points=[];" parent="LSWfNtZpds12nJW4Uo5Y-83" vertex="1" connectable="0">
          <mxGeometry x="-0.8784" relative="1" as="geometry">
            <mxPoint y="-12" as="offset" />
          </mxGeometry>
        </mxCell>
        <mxCell id="LSWfNtZpds12nJW4Uo5Y-92" value="*" style="edgeLabel;html=1;align=center;verticalAlign=middle;resizable=0;points=[];" parent="LSWfNtZpds12nJW4Uo5Y-83" vertex="1" connectable="0">
          <mxGeometry x="0.9216" relative="1" as="geometry">
            <mxPoint x="-1" y="-11" as="offset" />
          </mxGeometry>
        </mxCell>
        <mxCell id="LSWfNtZpds12nJW4Uo5Y-84" style="rounded=0;orthogonalLoop=1;jettySize=auto;html=1;endArrow=none;endFill=0;startArrow=none;startFill=0;" parent="1" source="LSWfNtZpds12nJW4Uo5Y-1" target="LSWfNtZpds12nJW4Uo5Y-5" edge="1">
          <mxGeometry relative="1" as="geometry" />
        </mxCell>
        <mxCell id="LSWfNtZpds12nJW4Uo5Y-99" value="1" style="edgeLabel;html=1;align=center;verticalAlign=middle;resizable=0;points=[];" parent="LSWfNtZpds12nJW4Uo5Y-84" vertex="1" connectable="0">
          <mxGeometry x="0.7905" relative="1" as="geometry">
            <mxPoint y="-8" as="offset" />
          </mxGeometry>
        </mxCell>
        <mxCell id="LSWfNtZpds12nJW4Uo5Y-100" value="*" style="edgeLabel;html=1;align=center;verticalAlign=middle;resizable=0;points=[];" parent="LSWfNtZpds12nJW4Uo5Y-84" vertex="1" connectable="0">
          <mxGeometry x="-0.7714" relative="1" as="geometry">
            <mxPoint y="-8" as="offset" />
          </mxGeometry>
        </mxCell>
        <mxCell id="LSWfNtZpds12nJW4Uo5Y-85" style="rounded=0;orthogonalLoop=1;jettySize=auto;html=1;endArrow=none;endFill=0;startArrow=none;startFill=0;" parent="1" source="LSWfNtZpds12nJW4Uo5Y-1" target="LSWfNtZpds12nJW4Uo5Y-29" edge="1">
          <mxGeometry relative="1" as="geometry" />
        </mxCell>
        <mxCell id="LSWfNtZpds12nJW4Uo5Y-97" value="1" style="edgeLabel;html=1;align=center;verticalAlign=middle;resizable=0;points=[];" parent="LSWfNtZpds12nJW4Uo5Y-85" vertex="1" connectable="0">
          <mxGeometry x="-0.6614" y="1" relative="1" as="geometry">
            <mxPoint x="3" as="offset" />
          </mxGeometry>
        </mxCell>
        <mxCell id="LSWfNtZpds12nJW4Uo5Y-98" value="*" style="edgeLabel;html=1;align=center;verticalAlign=middle;resizable=0;points=[];" parent="LSWfNtZpds12nJW4Uo5Y-85" vertex="1" connectable="0">
          <mxGeometry x="0.8095" y="1" relative="1" as="geometry">
            <mxPoint x="3" as="offset" />
          </mxGeometry>
        </mxCell>
        <mxCell id="LSWfNtZpds12nJW4Uo5Y-1" value="User" style="swimlane;fontStyle=1;align=center;verticalAlign=top;childLayout=stackLayout;horizontal=1;startSize=26;horizontalStack=0;resizeParent=1;resizeParentMax=0;resizeLast=0;collapsible=1;marginBottom=0;whiteSpace=wrap;html=1;" parent="1" vertex="1">
          <mxGeometry x="1070" y="177" width="160" height="346" as="geometry">
            <mxRectangle x="180" y="207" width="70" height="30" as="alternateBounds" />
          </mxGeometry>
        </mxCell>
        <mxCell id="LSWfNtZpds12nJW4Uo5Y-2" value="+ id: int" style="text;strokeColor=none;fillColor=none;align=left;verticalAlign=top;spacingLeft=4;spacingRight=4;overflow=hidden;rotatable=0;points=[[0,0.5],[1,0.5]];portConstraint=eastwest;whiteSpace=wrap;html=1;" parent="LSWfNtZpds12nJW4Uo5Y-1" vertex="1">
          <mxGeometry y="26" width="160" height="26" as="geometry" />
        </mxCell>
        <mxCell id="LSWfNtZpds12nJW4Uo5Y-33" value="+ role_id: int" style="text;strokeColor=none;fillColor=none;align=left;verticalAlign=top;spacingLeft=4;spacingRight=4;overflow=hidden;rotatable=0;points=[[0,0.5],[1,0.5]];portConstraint=eastwest;whiteSpace=wrap;html=1;" parent="LSWfNtZpds12nJW4Uo5Y-1" vertex="1">
          <mxGeometry y="52" width="160" height="26" as="geometry" />
        </mxCell>
        <mxCell id="LSWfNtZpds12nJW4Uo5Y-37" value="+ name: string" style="text;strokeColor=none;fillColor=none;align=left;verticalAlign=top;spacingLeft=4;spacingRight=4;overflow=hidden;rotatable=0;points=[[0,0.5],[1,0.5]];portConstraint=eastwest;whiteSpace=wrap;html=1;" parent="LSWfNtZpds12nJW4Uo5Y-1" vertex="1">
          <mxGeometry y="78" width="160" height="26" as="geometry" />
        </mxCell>
        <mxCell id="LSWfNtZpds12nJW4Uo5Y-38" value="+ phone: string" style="text;strokeColor=none;fillColor=none;align=left;verticalAlign=top;spacingLeft=4;spacingRight=4;overflow=hidden;rotatable=0;points=[[0,0.5],[1,0.5]];portConstraint=eastwest;whiteSpace=wrap;html=1;" parent="LSWfNtZpds12nJW4Uo5Y-1" vertex="1">
          <mxGeometry y="104" width="160" height="26" as="geometry" />
        </mxCell>
        <mxCell id="LSWfNtZpds12nJW4Uo5Y-36" value="+ password: string" style="text;strokeColor=none;fillColor=none;align=left;verticalAlign=top;spacingLeft=4;spacingRight=4;overflow=hidden;rotatable=0;points=[[0,0.5],[1,0.5]];portConstraint=eastwest;whiteSpace=wrap;html=1;" parent="LSWfNtZpds12nJW4Uo5Y-1" vertex="1">
          <mxGeometry y="130" width="160" height="26" as="geometry" />
        </mxCell>
        <mxCell id="LSWfNtZpds12nJW4Uo5Y-35" value="+ place: string" style="text;strokeColor=none;fillColor=none;align=left;verticalAlign=top;spacingLeft=4;spacingRight=4;overflow=hidden;rotatable=0;points=[[0,0.5],[1,0.5]];portConstraint=eastwest;whiteSpace=wrap;html=1;" parent="LSWfNtZpds12nJW4Uo5Y-1" vertex="1">
          <mxGeometry y="156" width="160" height="26" as="geometry" />
        </mxCell>
        <mxCell id="LSWfNtZpds12nJW4Uo5Y-34" value="+ created_at: date" style="text;strokeColor=none;fillColor=none;align=left;verticalAlign=top;spacingLeft=4;spacingRight=4;overflow=hidden;rotatable=0;points=[[0,0.5],[1,0.5]];portConstraint=eastwest;whiteSpace=wrap;html=1;" parent="LSWfNtZpds12nJW4Uo5Y-1" vertex="1">
          <mxGeometry y="182" width="160" height="26" as="geometry" />
        </mxCell>
        <mxCell id="LSWfNtZpds12nJW4Uo5Y-3" value="" style="line;strokeWidth=1;fillColor=none;align=left;verticalAlign=middle;spacingTop=-1;spacingLeft=3;spacingRight=3;rotatable=0;labelPosition=right;points=[];portConstraint=eastwest;strokeColor=inherit;" parent="LSWfNtZpds12nJW4Uo5Y-1" vertex="1">
          <mxGeometry y="208" width="160" height="8" as="geometry" />
        </mxCell>
        <mxCell id="LSWfNtZpds12nJW4Uo5Y-39" value="+ create(request): User" style="text;strokeColor=none;fillColor=none;align=left;verticalAlign=top;spacingLeft=4;spacingRight=4;overflow=hidden;rotatable=0;points=[[0,0.5],[1,0.5]];portConstraint=eastwest;whiteSpace=wrap;html=1;" parent="LSWfNtZpds12nJW4Uo5Y-1" vertex="1">
          <mxGeometry y="216" width="160" height="26" as="geometry" />
        </mxCell>
        <mxCell id="LSWfNtZpds12nJW4Uo5Y-40" value="+ destroy(User user): void" style="text;strokeColor=none;fillColor=none;align=left;verticalAlign=top;spacingLeft=4;spacingRight=4;overflow=hidden;rotatable=0;points=[[0,0.5],[1,0.5]];portConstraint=eastwest;whiteSpace=wrap;html=1;" parent="LSWfNtZpds12nJW4Uo5Y-1" vertex="1">
          <mxGeometry y="242" width="160" height="26" as="geometry" />
        </mxCell>
        <mxCell id="LSWfNtZpds12nJW4Uo5Y-41" value="+ update(User user): User" style="text;strokeColor=none;fillColor=none;align=left;verticalAlign=top;spacingLeft=4;spacingRight=4;overflow=hidden;rotatable=0;points=[[0,0.5],[1,0.5]];portConstraint=eastwest;whiteSpace=wrap;html=1;" parent="LSWfNtZpds12nJW4Uo5Y-1" vertex="1">
          <mxGeometry y="268" width="160" height="26" as="geometry" />
        </mxCell>
        <mxCell id="LSWfNtZpds12nJW4Uo5Y-42" value="+ index(): User" style="text;strokeColor=none;fillColor=none;align=left;verticalAlign=top;spacingLeft=4;spacingRight=4;overflow=hidden;rotatable=0;points=[[0,0.5],[1,0.5]];portConstraint=eastwest;whiteSpace=wrap;html=1;" parent="LSWfNtZpds12nJW4Uo5Y-1" vertex="1">
          <mxGeometry y="294" width="160" height="26" as="geometry" />
        </mxCell>
        <mxCell id="LSWfNtZpds12nJW4Uo5Y-4" value="+ show(User user): User" style="text;strokeColor=none;fillColor=none;align=left;verticalAlign=top;spacingLeft=4;spacingRight=4;overflow=hidden;rotatable=0;points=[[0,0.5],[1,0.5]];portConstraint=eastwest;whiteSpace=wrap;html=1;" parent="LSWfNtZpds12nJW4Uo5Y-1" vertex="1">
          <mxGeometry y="320" width="160" height="26" as="geometry" />
        </mxCell>
        <mxCell id="LSWfNtZpds12nJW4Uo5Y-5" value="Role" style="swimlane;fontStyle=1;align=center;verticalAlign=top;childLayout=stackLayout;horizontal=1;startSize=26;horizontalStack=0;resizeParent=1;resizeParentMax=0;resizeLast=0;collapsible=1;marginBottom=0;whiteSpace=wrap;html=1;" parent="1" vertex="1">
          <mxGeometry x="860" y="294" width="160" height="112" as="geometry">
            <mxRectangle x="40" y="207" width="70" height="30" as="alternateBounds" />
          </mxGeometry>
        </mxCell>
        <mxCell id="LSWfNtZpds12nJW4Uo5Y-6" value="+ id: int" style="text;strokeColor=none;fillColor=none;align=left;verticalAlign=top;spacingLeft=4;spacingRight=4;overflow=hidden;rotatable=0;points=[[0,0.5],[1,0.5]];portConstraint=eastwest;whiteSpace=wrap;html=1;" parent="LSWfNtZpds12nJW4Uo5Y-5" vertex="1">
          <mxGeometry y="26" width="160" height="26" as="geometry" />
        </mxCell>
        <mxCell id="LSWfNtZpds12nJW4Uo5Y-43" value="+ name: string" style="text;strokeColor=none;fillColor=none;align=left;verticalAlign=top;spacingLeft=4;spacingRight=4;overflow=hidden;rotatable=0;points=[[0,0.5],[1,0.5]];portConstraint=eastwest;whiteSpace=wrap;html=1;" parent="LSWfNtZpds12nJW4Uo5Y-5" vertex="1">
          <mxGeometry y="52" width="160" height="26" as="geometry" />
        </mxCell>
        <mxCell id="LSWfNtZpds12nJW4Uo5Y-7" value="" style="line;strokeWidth=1;fillColor=none;align=left;verticalAlign=middle;spacingTop=-1;spacingLeft=3;spacingRight=3;rotatable=0;labelPosition=right;points=[];portConstraint=eastwest;strokeColor=inherit;" parent="LSWfNtZpds12nJW4Uo5Y-5" vertex="1">
          <mxGeometry y="78" width="160" height="8" as="geometry" />
        </mxCell>
        <mxCell id="LSWfNtZpds12nJW4Uo5Y-8" value="+ index(): Role" style="text;strokeColor=none;fillColor=none;align=left;verticalAlign=top;spacingLeft=4;spacingRight=4;overflow=hidden;rotatable=0;points=[[0,0.5],[1,0.5]];portConstraint=eastwest;whiteSpace=wrap;html=1;" parent="LSWfNtZpds12nJW4Uo5Y-5" vertex="1">
          <mxGeometry y="86" width="160" height="26" as="geometry" />
        </mxCell>
        <mxCell id="LSWfNtZpds12nJW4Uo5Y-86" style="rounded=0;orthogonalLoop=1;jettySize=auto;html=1;endArrow=none;endFill=0;startArrow=none;startFill=0;" parent="1" source="LSWfNtZpds12nJW4Uo5Y-13" target="LSWfNtZpds12nJW4Uo5Y-17" edge="1">
          <mxGeometry relative="1" as="geometry" />
        </mxCell>
        <mxCell id="LSWfNtZpds12nJW4Uo5Y-93" value="1" style="edgeLabel;html=1;align=center;verticalAlign=middle;resizable=0;points=[];" parent="LSWfNtZpds12nJW4Uo5Y-86" vertex="1" connectable="0">
          <mxGeometry x="0.8222" relative="1" as="geometry">
            <mxPoint x="-6" y="-8" as="offset" />
          </mxGeometry>
        </mxCell>
        <mxCell id="LSWfNtZpds12nJW4Uo5Y-94" value="*" style="edgeLabel;html=1;align=center;verticalAlign=middle;resizable=0;points=[];" parent="LSWfNtZpds12nJW4Uo5Y-86" vertex="1" connectable="0">
          <mxGeometry x="-0.8444" y="1" relative="1" as="geometry">
            <mxPoint x="1" y="-7" as="offset" />
          </mxGeometry>
        </mxCell>
        <mxCell id="LSWfNtZpds12nJW4Uo5Y-87" style="rounded=0;orthogonalLoop=1;jettySize=auto;html=1;endArrow=none;endFill=0;startArrow=none;startFill=0;" parent="1" source="LSWfNtZpds12nJW4Uo5Y-13" target="LSWfNtZpds12nJW4Uo5Y-21" edge="1">
          <mxGeometry relative="1" as="geometry" />
        </mxCell>
        <mxCell id="LSWfNtZpds12nJW4Uo5Y-95" value="1" style="edgeLabel;html=1;align=center;verticalAlign=middle;resizable=0;points=[];" parent="LSWfNtZpds12nJW4Uo5Y-87" vertex="1" connectable="0">
          <mxGeometry x="-0.7249" y="1" relative="1" as="geometry">
            <mxPoint x="1" y="13" as="offset" />
          </mxGeometry>
        </mxCell>
        <mxCell id="LSWfNtZpds12nJW4Uo5Y-96" value="*" style="edgeLabel;html=1;align=center;verticalAlign=middle;resizable=0;points=[];" parent="LSWfNtZpds12nJW4Uo5Y-87" vertex="1" connectable="0">
          <mxGeometry x="0.746" y="-1" relative="1" as="geometry">
            <mxPoint x="5" as="offset" />
          </mxGeometry>
        </mxCell>
        <mxCell id="LSWfNtZpds12nJW4Uo5Y-88" style="rounded=0;orthogonalLoop=1;jettySize=auto;html=1;endArrow=none;endFill=0;" parent="1" source="LSWfNtZpds12nJW4Uo5Y-13" target="LSWfNtZpds12nJW4Uo5Y-25" edge="1">
          <mxGeometry relative="1" as="geometry" />
        </mxCell>
        <mxCell id="LSWfNtZpds12nJW4Uo5Y-101" value="*" style="edgeLabel;html=1;align=center;verticalAlign=middle;resizable=0;points=[];" parent="LSWfNtZpds12nJW4Uo5Y-88" vertex="1" connectable="0">
          <mxGeometry x="0.8838" relative="1" as="geometry">
            <mxPoint x="4" y="4" as="offset" />
          </mxGeometry>
        </mxCell>
        <mxCell id="LSWfNtZpds12nJW4Uo5Y-102" value="1" style="edgeLabel;html=1;align=center;verticalAlign=middle;resizable=0;points=[];" parent="LSWfNtZpds12nJW4Uo5Y-88" vertex="1" connectable="0">
          <mxGeometry x="-0.9101" y="-1" relative="1" as="geometry">
            <mxPoint x="3" y="-7" as="offset" />
          </mxGeometry>
        </mxCell>
        <mxCell id="LSWfNtZpds12nJW4Uo5Y-13" value="Fish" style="swimlane;fontStyle=1;align=center;verticalAlign=top;childLayout=stackLayout;horizontal=1;startSize=26;horizontalStack=0;resizeParent=1;resizeParentMax=0;resizeLast=0;collapsible=1;marginBottom=0;whiteSpace=wrap;html=1;" parent="1" vertex="1">
          <mxGeometry x="1330" y="523" width="160" height="294" as="geometry">
            <mxRectangle x="420" y="207" width="60" height="30" as="alternateBounds" />
          </mxGeometry>
        </mxCell>
        <mxCell id="LSWfNtZpds12nJW4Uo5Y-44" value="+ id: int" style="text;strokeColor=none;fillColor=none;align=left;verticalAlign=top;spacingLeft=4;spacingRight=4;overflow=hidden;rotatable=0;points=[[0,0.5],[1,0.5]];portConstraint=eastwest;whiteSpace=wrap;html=1;" parent="LSWfNtZpds12nJW4Uo5Y-13" vertex="1">
          <mxGeometry y="26" width="160" height="26" as="geometry" />
        </mxCell>
        <mxCell id="LSWfNtZpds12nJW4Uo5Y-47" value="+ fish_name_id: int" style="text;strokeColor=none;fillColor=none;align=left;verticalAlign=top;spacingLeft=4;spacingRight=4;overflow=hidden;rotatable=0;points=[[0,0.5],[1,0.5]];portConstraint=eastwest;whiteSpace=wrap;html=1;" parent="LSWfNtZpds12nJW4Uo5Y-13" vertex="1">
          <mxGeometry y="52" width="160" height="26" as="geometry" />
        </mxCell>
        <mxCell id="LSWfNtZpds12nJW4Uo5Y-48" value="+ user_id: int" style="text;strokeColor=none;fillColor=none;align=left;verticalAlign=top;spacingLeft=4;spacingRight=4;overflow=hidden;rotatable=0;points=[[0,0.5],[1,0.5]];portConstraint=eastwest;whiteSpace=wrap;html=1;" parent="LSWfNtZpds12nJW4Uo5Y-13" vertex="1">
          <mxGeometry y="78" width="160" height="26" as="geometry" />
        </mxCell>
        <mxCell id="LSWfNtZpds12nJW4Uo5Y-46" value="+ weight: float" style="text;strokeColor=none;fillColor=none;align=left;verticalAlign=top;spacingLeft=4;spacingRight=4;overflow=hidden;rotatable=0;points=[[0,0.5],[1,0.5]];portConstraint=eastwest;whiteSpace=wrap;html=1;" parent="LSWfNtZpds12nJW4Uo5Y-13" vertex="1">
          <mxGeometry y="104" width="160" height="26" as="geometry" />
        </mxCell>
        <mxCell id="LSWfNtZpds12nJW4Uo5Y-45" value="+ cost_per_kg: float" style="text;strokeColor=none;fillColor=none;align=left;verticalAlign=top;spacingLeft=4;spacingRight=4;overflow=hidden;rotatable=0;points=[[0,0.5],[1,0.5]];portConstraint=eastwest;whiteSpace=wrap;html=1;" parent="LSWfNtZpds12nJW4Uo5Y-13" vertex="1">
          <mxGeometry y="130" width="160" height="26" as="geometry" />
        </mxCell>
        <mxCell id="LSWfNtZpds12nJW4Uo5Y-15" value="" style="line;strokeWidth=1;fillColor=none;align=left;verticalAlign=middle;spacingTop=-1;spacingLeft=3;spacingRight=3;rotatable=0;labelPosition=right;points=[];portConstraint=eastwest;strokeColor=inherit;" parent="LSWfNtZpds12nJW4Uo5Y-13" vertex="1">
          <mxGeometry y="156" width="160" height="8" as="geometry" />
        </mxCell>
        <mxCell id="LSWfNtZpds12nJW4Uo5Y-49" value="+ create(request): Fish" style="text;strokeColor=none;fillColor=none;align=left;verticalAlign=top;spacingLeft=4;spacingRight=4;overflow=hidden;rotatable=0;points=[[0,0.5],[1,0.5]];portConstraint=eastwest;whiteSpace=wrap;html=1;" parent="LSWfNtZpds12nJW4Uo5Y-13" vertex="1">
          <mxGeometry y="164" width="160" height="26" as="geometry" />
        </mxCell>
        <mxCell id="LSWfNtZpds12nJW4Uo5Y-50" value="+ destroy(Fish fish): void" style="text;strokeColor=none;fillColor=none;align=left;verticalAlign=top;spacingLeft=4;spacingRight=4;overflow=hidden;rotatable=0;points=[[0,0.5],[1,0.5]];portConstraint=eastwest;whiteSpace=wrap;html=1;" parent="LSWfNtZpds12nJW4Uo5Y-13" vertex="1">
          <mxGeometry y="190" width="160" height="26" as="geometry" />
        </mxCell>
        <mxCell id="LSWfNtZpds12nJW4Uo5Y-51" value="+ update(Fish fish): Fish" style="text;strokeColor=none;fillColor=none;align=left;verticalAlign=top;spacingLeft=4;spacingRight=4;overflow=hidden;rotatable=0;points=[[0,0.5],[1,0.5]];portConstraint=eastwest;whiteSpace=wrap;html=1;" parent="LSWfNtZpds12nJW4Uo5Y-13" vertex="1">
          <mxGeometry y="216" width="160" height="26" as="geometry" />
        </mxCell>
        <mxCell id="LSWfNtZpds12nJW4Uo5Y-52" value="+ index(): Fish" style="text;strokeColor=none;fillColor=none;align=left;verticalAlign=top;spacingLeft=4;spacingRight=4;overflow=hidden;rotatable=0;points=[[0,0.5],[1,0.5]];portConstraint=eastwest;whiteSpace=wrap;html=1;" parent="LSWfNtZpds12nJW4Uo5Y-13" vertex="1">
          <mxGeometry y="242" width="160" height="26" as="geometry" />
        </mxCell>
        <mxCell id="LSWfNtZpds12nJW4Uo5Y-53" value="+ show(Fish&amp;nbsp;fish): Fish" style="text;strokeColor=none;fillColor=none;align=left;verticalAlign=top;spacingLeft=4;spacingRight=4;overflow=hidden;rotatable=0;points=[[0,0.5],[1,0.5]];portConstraint=eastwest;whiteSpace=wrap;html=1;" parent="LSWfNtZpds12nJW4Uo5Y-13" vertex="1">
          <mxGeometry y="268" width="160" height="26" as="geometry" />
        </mxCell>
        <mxCell id="LSWfNtZpds12nJW4Uo5Y-17" value="FishName" style="swimlane;fontStyle=1;align=center;verticalAlign=top;childLayout=stackLayout;horizontal=1;startSize=26;horizontalStack=0;resizeParent=1;resizeParentMax=0;resizeLast=0;collapsible=1;marginBottom=0;whiteSpace=wrap;html=1;" parent="1" vertex="1">
          <mxGeometry x="1530" y="614" width="160" height="112" as="geometry">
            <mxRectangle x="760" y="207" width="100" height="30" as="alternateBounds" />
          </mxGeometry>
        </mxCell>
        <mxCell id="LSWfNtZpds12nJW4Uo5Y-18" value="+ id: int" style="text;strokeColor=none;fillColor=none;align=left;verticalAlign=top;spacingLeft=4;spacingRight=4;overflow=hidden;rotatable=0;points=[[0,0.5],[1,0.5]];portConstraint=eastwest;whiteSpace=wrap;html=1;" parent="LSWfNtZpds12nJW4Uo5Y-17" vertex="1">
          <mxGeometry y="26" width="160" height="26" as="geometry" />
        </mxCell>
        <mxCell id="LSWfNtZpds12nJW4Uo5Y-54" value="+ name: string" style="text;strokeColor=none;fillColor=none;align=left;verticalAlign=top;spacingLeft=4;spacingRight=4;overflow=hidden;rotatable=0;points=[[0,0.5],[1,0.5]];portConstraint=eastwest;whiteSpace=wrap;html=1;" parent="LSWfNtZpds12nJW4Uo5Y-17" vertex="1">
          <mxGeometry y="52" width="160" height="26" as="geometry" />
        </mxCell>
        <mxCell id="LSWfNtZpds12nJW4Uo5Y-19" value="" style="line;strokeWidth=1;fillColor=none;align=left;verticalAlign=middle;spacingTop=-1;spacingLeft=3;spacingRight=3;rotatable=0;labelPosition=right;points=[];portConstraint=eastwest;strokeColor=inherit;" parent="LSWfNtZpds12nJW4Uo5Y-17" vertex="1">
          <mxGeometry y="78" width="160" height="8" as="geometry" />
        </mxCell>
        <mxCell id="LSWfNtZpds12nJW4Uo5Y-20" value="+ index():&amp;nbsp;&lt;span style=&quot;text-align: center;&quot;&gt;FishName&lt;/span&gt;" style="text;strokeColor=none;fillColor=none;align=left;verticalAlign=top;spacingLeft=4;spacingRight=4;overflow=hidden;rotatable=0;points=[[0,0.5],[1,0.5]];portConstraint=eastwest;whiteSpace=wrap;html=1;" parent="LSWfNtZpds12nJW4Uo5Y-17" vertex="1">
          <mxGeometry y="86" width="160" height="26" as="geometry" />
        </mxCell>
        <mxCell id="LSWfNtZpds12nJW4Uo5Y-21" value="Photo" style="swimlane;fontStyle=1;align=center;verticalAlign=top;childLayout=stackLayout;horizontal=1;startSize=26;horizontalStack=0;resizeParent=1;resizeParentMax=0;resizeLast=0;collapsible=1;marginBottom=0;whiteSpace=wrap;html=1;" parent="1" vertex="1">
          <mxGeometry x="1520" y="217" width="160" height="164" as="geometry">
            <mxRectangle x="480" y="490" width="70" height="30" as="alternateBounds" />
          </mxGeometry>
        </mxCell>
        <mxCell id="LSWfNtZpds12nJW4Uo5Y-22" value="+ id: int" style="text;strokeColor=none;fillColor=none;align=left;verticalAlign=top;spacingLeft=4;spacingRight=4;overflow=hidden;rotatable=0;points=[[0,0.5],[1,0.5]];portConstraint=eastwest;whiteSpace=wrap;html=1;" parent="LSWfNtZpds12nJW4Uo5Y-21" vertex="1">
          <mxGeometry y="26" width="160" height="26" as="geometry" />
        </mxCell>
        <mxCell id="LSWfNtZpds12nJW4Uo5Y-55" value="+ fish_id: int" style="text;strokeColor=none;fillColor=none;align=left;verticalAlign=top;spacingLeft=4;spacingRight=4;overflow=hidden;rotatable=0;points=[[0,0.5],[1,0.5]];portConstraint=eastwest;whiteSpace=wrap;html=1;" parent="LSWfNtZpds12nJW4Uo5Y-21" vertex="1">
          <mxGeometry y="52" width="160" height="26" as="geometry" />
        </mxCell>
        <mxCell id="LSWfNtZpds12nJW4Uo5Y-56" value="+ path: string" style="text;strokeColor=none;fillColor=none;align=left;verticalAlign=top;spacingLeft=4;spacingRight=4;overflow=hidden;rotatable=0;points=[[0,0.5],[1,0.5]];portConstraint=eastwest;whiteSpace=wrap;html=1;" parent="LSWfNtZpds12nJW4Uo5Y-21" vertex="1">
          <mxGeometry y="78" width="160" height="26" as="geometry" />
        </mxCell>
        <mxCell id="LSWfNtZpds12nJW4Uo5Y-23" value="" style="line;strokeWidth=1;fillColor=none;align=left;verticalAlign=middle;spacingTop=-1;spacingLeft=3;spacingRight=3;rotatable=0;labelPosition=right;points=[];portConstraint=eastwest;strokeColor=inherit;" parent="LSWfNtZpds12nJW4Uo5Y-21" vertex="1">
          <mxGeometry y="104" width="160" height="8" as="geometry" />
        </mxCell>
        <mxCell id="LSWfNtZpds12nJW4Uo5Y-24" value="+ index():&amp;nbsp;&lt;span style=&quot;text-align: center;&quot;&gt;Photo&lt;/span&gt;" style="text;strokeColor=none;fillColor=none;align=left;verticalAlign=top;spacingLeft=4;spacingRight=4;overflow=hidden;rotatable=0;points=[[0,0.5],[1,0.5]];portConstraint=eastwest;whiteSpace=wrap;html=1;" parent="LSWfNtZpds12nJW4Uo5Y-21" vertex="1">
          <mxGeometry y="112" width="160" height="26" as="geometry" />
        </mxCell>
        <mxCell id="LSWfNtZpds12nJW4Uo5Y-57" value="+ show(&lt;span style=&quot;text-align: center;&quot;&gt;Photo&amp;nbsp;&lt;/span&gt;photo):&amp;nbsp;&lt;span style=&quot;text-align: center;&quot;&gt;Photo&lt;/span&gt;" style="text;strokeColor=none;fillColor=none;align=left;verticalAlign=top;spacingLeft=4;spacingRight=4;overflow=hidden;rotatable=0;points=[[0,0.5],[1,0.5]];portConstraint=eastwest;whiteSpace=wrap;html=1;" parent="LSWfNtZpds12nJW4Uo5Y-21" vertex="1">
          <mxGeometry y="138" width="160" height="26" as="geometry" />
        </mxCell>
        <mxCell id="LSWfNtZpds12nJW4Uo5Y-25" value="Order" style="swimlane;fontStyle=1;align=center;verticalAlign=top;childLayout=stackLayout;horizontal=1;startSize=26;horizontalStack=0;resizeParent=1;resizeParentMax=0;resizeLast=0;collapsible=1;marginBottom=0;whiteSpace=wrap;html=1;" parent="1" vertex="1">
          <mxGeometry x="1330" y="177" width="170" height="294" as="geometry">
            <mxRectangle x="330" y="-280" width="70" height="30" as="alternateBounds" />
          </mxGeometry>
        </mxCell>
        <mxCell id="LSWfNtZpds12nJW4Uo5Y-67" value="+ id: int" style="text;strokeColor=none;fillColor=none;align=left;verticalAlign=top;spacingLeft=4;spacingRight=4;overflow=hidden;rotatable=0;points=[[0,0.5],[1,0.5]];portConstraint=eastwest;whiteSpace=wrap;html=1;" parent="LSWfNtZpds12nJW4Uo5Y-25" vertex="1">
          <mxGeometry y="26" width="170" height="26" as="geometry" />
        </mxCell>
        <mxCell id="LSWfNtZpds12nJW4Uo5Y-68" value="+ fish_id: int" style="text;strokeColor=none;fillColor=none;align=left;verticalAlign=top;spacingLeft=4;spacingRight=4;overflow=hidden;rotatable=0;points=[[0,0.5],[1,0.5]];portConstraint=eastwest;whiteSpace=wrap;html=1;" parent="LSWfNtZpds12nJW4Uo5Y-25" vertex="1">
          <mxGeometry y="52" width="170" height="26" as="geometry" />
        </mxCell>
        <mxCell id="LSWfNtZpds12nJW4Uo5Y-69" value="+ user_id: int" style="text;strokeColor=none;fillColor=none;align=left;verticalAlign=top;spacingLeft=4;spacingRight=4;overflow=hidden;rotatable=0;points=[[0,0.5],[1,0.5]];portConstraint=eastwest;whiteSpace=wrap;html=1;" parent="LSWfNtZpds12nJW4Uo5Y-25" vertex="1">
          <mxGeometry y="78" width="170" height="26" as="geometry" />
        </mxCell>
        <mxCell id="LSWfNtZpds12nJW4Uo5Y-70" value="+ weight: float" style="text;strokeColor=none;fillColor=none;align=left;verticalAlign=top;spacingLeft=4;spacingRight=4;overflow=hidden;rotatable=0;points=[[0,0.5],[1,0.5]];portConstraint=eastwest;whiteSpace=wrap;html=1;" parent="LSWfNtZpds12nJW4Uo5Y-25" vertex="1">
          <mxGeometry y="104" width="170" height="26" as="geometry" />
        </mxCell>
        <mxCell id="LSWfNtZpds12nJW4Uo5Y-71" value="+ date: date" style="text;strokeColor=none;fillColor=none;align=left;verticalAlign=top;spacingLeft=4;spacingRight=4;overflow=hidden;rotatable=0;points=[[0,0.5],[1,0.5]];portConstraint=eastwest;whiteSpace=wrap;html=1;" parent="LSWfNtZpds12nJW4Uo5Y-25" vertex="1">
          <mxGeometry y="130" width="170" height="26" as="geometry" />
        </mxCell>
        <mxCell id="LSWfNtZpds12nJW4Uo5Y-27" value="" style="line;strokeWidth=1;fillColor=none;align=left;verticalAlign=middle;spacingTop=-1;spacingLeft=3;spacingRight=3;rotatable=0;labelPosition=right;points=[];portConstraint=eastwest;strokeColor=inherit;" parent="LSWfNtZpds12nJW4Uo5Y-25" vertex="1">
          <mxGeometry y="156" width="170" height="8" as="geometry" />
        </mxCell>
        <mxCell id="LSWfNtZpds12nJW4Uo5Y-73" value="+ destroy(&lt;span style=&quot;text-align: center;&quot;&gt;Order&lt;/span&gt;&lt;span style=&quot;font-weight: 700; text-align: center;&quot;&gt;&amp;nbsp;&lt;/span&gt;user): void" style="text;strokeColor=none;fillColor=none;align=left;verticalAlign=top;spacingLeft=4;spacingRight=4;overflow=hidden;rotatable=0;points=[[0,0.5],[1,0.5]];portConstraint=eastwest;whiteSpace=wrap;html=1;" parent="LSWfNtZpds12nJW4Uo5Y-25" vertex="1">
          <mxGeometry y="164" width="170" height="26" as="geometry" />
        </mxCell>
        <mxCell id="LSWfNtZpds12nJW4Uo5Y-72" value="+ create(request):&amp;nbsp;&lt;span style=&quot;text-align: center;&quot;&gt;Order&lt;/span&gt;" style="text;strokeColor=none;fillColor=none;align=left;verticalAlign=top;spacingLeft=4;spacingRight=4;overflow=hidden;rotatable=0;points=[[0,0.5],[1,0.5]];portConstraint=eastwest;whiteSpace=wrap;html=1;" parent="LSWfNtZpds12nJW4Uo5Y-25" vertex="1">
          <mxGeometry y="190" width="170" height="26" as="geometry" />
        </mxCell>
        <mxCell id="LSWfNtZpds12nJW4Uo5Y-75" value="+ update(&lt;span style=&quot;text-align: center;&quot;&gt;Order&amp;nbsp;&lt;/span&gt;order):&amp;nbsp;&lt;span style=&quot;text-align: center;&quot;&gt;Order&lt;/span&gt;" style="text;strokeColor=none;fillColor=none;align=left;verticalAlign=top;spacingLeft=4;spacingRight=4;overflow=hidden;rotatable=0;points=[[0,0.5],[1,0.5]];portConstraint=eastwest;whiteSpace=wrap;html=1;" parent="LSWfNtZpds12nJW4Uo5Y-25" vertex="1">
          <mxGeometry y="216" width="170" height="26" as="geometry" />
        </mxCell>
        <mxCell id="LSWfNtZpds12nJW4Uo5Y-76" value="+ index():&amp;nbsp;&lt;span style=&quot;text-align: center;&quot;&gt;Order&lt;/span&gt;" style="text;strokeColor=none;fillColor=none;align=left;verticalAlign=top;spacingLeft=4;spacingRight=4;overflow=hidden;rotatable=0;points=[[0,0.5],[1,0.5]];portConstraint=eastwest;whiteSpace=wrap;html=1;" parent="LSWfNtZpds12nJW4Uo5Y-25" vertex="1">
          <mxGeometry y="242" width="170" height="26" as="geometry" />
        </mxCell>
        <mxCell id="LSWfNtZpds12nJW4Uo5Y-77" value="+ show(&lt;span style=&quot;text-align: center;&quot;&gt;Order order&lt;/span&gt;):&amp;nbsp;&lt;span style=&quot;text-align: center;&quot;&gt;Order&lt;/span&gt;" style="text;strokeColor=none;fillColor=none;align=left;verticalAlign=top;spacingLeft=4;spacingRight=4;overflow=hidden;rotatable=0;points=[[0,0.5],[1,0.5]];portConstraint=eastwest;whiteSpace=wrap;html=1;" parent="LSWfNtZpds12nJW4Uo5Y-25" vertex="1">
          <mxGeometry y="268" width="170" height="26" as="geometry" />
        </mxCell>
        <mxCell id="LSWfNtZpds12nJW4Uo5Y-29" value="R&lt;span style=&quot;background-color: initial;&quot;&gt;equest&lt;/span&gt;" style="swimlane;fontStyle=1;align=center;verticalAlign=top;childLayout=stackLayout;horizontal=1;startSize=26;horizontalStack=0;resizeParent=1;resizeParentMax=0;resizeLast=0;collapsible=1;marginBottom=0;whiteSpace=wrap;html=1;" parent="1" vertex="1">
          <mxGeometry x="1050" y="563" width="200" height="268" as="geometry">
            <mxRectangle x="160" y="570" width="120" height="30" as="alternateBounds" />
          </mxGeometry>
        </mxCell>
        <mxCell id="LSWfNtZpds12nJW4Uo5Y-59" value="+ id: int" style="text;strokeColor=none;fillColor=none;align=left;verticalAlign=top;spacingLeft=4;spacingRight=4;overflow=hidden;rotatable=0;points=[[0,0.5],[1,0.5]];portConstraint=eastwest;whiteSpace=wrap;html=1;" parent="LSWfNtZpds12nJW4Uo5Y-29" vertex="1">
          <mxGeometry y="26" width="200" height="26" as="geometry" />
        </mxCell>
        <mxCell id="LSWfNtZpds12nJW4Uo5Y-58" value="+ user_id: int" style="text;strokeColor=none;fillColor=none;align=left;verticalAlign=top;spacingLeft=4;spacingRight=4;overflow=hidden;rotatable=0;points=[[0,0.5],[1,0.5]];portConstraint=eastwest;whiteSpace=wrap;html=1;" parent="LSWfNtZpds12nJW4Uo5Y-29" vertex="1">
          <mxGeometry y="52" width="200" height="26" as="geometry" />
        </mxCell>
        <mxCell id="LSWfNtZpds12nJW4Uo5Y-60" value="+ place: string" style="text;strokeColor=none;fillColor=none;align=left;verticalAlign=top;spacingLeft=4;spacingRight=4;overflow=hidden;rotatable=0;points=[[0,0.5],[1,0.5]];portConstraint=eastwest;whiteSpace=wrap;html=1;" parent="LSWfNtZpds12nJW4Uo5Y-29" vertex="1">
          <mxGeometry y="78" width="200" height="26" as="geometry" />
        </mxCell>
        <mxCell id="LSWfNtZpds12nJW4Uo5Y-30" value="+ description: string" style="text;strokeColor=none;fillColor=none;align=left;verticalAlign=top;spacingLeft=4;spacingRight=4;overflow=hidden;rotatable=0;points=[[0,0.5],[1,0.5]];portConstraint=eastwest;whiteSpace=wrap;html=1;" parent="LSWfNtZpds12nJW4Uo5Y-29" vertex="1">
          <mxGeometry y="104" width="200" height="26" as="geometry" />
        </mxCell>
        <mxCell id="LSWfNtZpds12nJW4Uo5Y-61" value="+ date: date" style="text;strokeColor=none;fillColor=none;align=left;verticalAlign=top;spacingLeft=4;spacingRight=4;overflow=hidden;rotatable=0;points=[[0,0.5],[1,0.5]];portConstraint=eastwest;whiteSpace=wrap;html=1;" parent="LSWfNtZpds12nJW4Uo5Y-29" vertex="1">
          <mxGeometry y="130" width="200" height="26" as="geometry" />
        </mxCell>
        <mxCell id="LSWfNtZpds12nJW4Uo5Y-31" value="" style="line;strokeWidth=1;fillColor=none;align=left;verticalAlign=middle;spacingTop=-1;spacingLeft=3;spacingRight=3;rotatable=0;labelPosition=right;points=[];portConstraint=eastwest;strokeColor=inherit;" parent="LSWfNtZpds12nJW4Uo5Y-29" vertex="1">
          <mxGeometry y="156" width="200" height="8" as="geometry" />
        </mxCell>
        <mxCell id="LSWfNtZpds12nJW4Uo5Y-62" value="+ create(request): Request" style="text;strokeColor=none;fillColor=none;align=left;verticalAlign=top;spacingLeft=4;spacingRight=4;overflow=hidden;rotatable=0;points=[[0,0.5],[1,0.5]];portConstraint=eastwest;whiteSpace=wrap;html=1;" parent="LSWfNtZpds12nJW4Uo5Y-29" vertex="1">
          <mxGeometry y="164" width="200" height="26" as="geometry" />
        </mxCell>
        <mxCell id="LSWfNtZpds12nJW4Uo5Y-63" value="+ destroy(Request request): void" style="text;strokeColor=none;fillColor=none;align=left;verticalAlign=top;spacingLeft=4;spacingRight=4;overflow=hidden;rotatable=0;points=[[0,0.5],[1,0.5]];portConstraint=eastwest;whiteSpace=wrap;html=1;" parent="LSWfNtZpds12nJW4Uo5Y-29" vertex="1">
          <mxGeometry y="190" width="200" height="26" as="geometry" />
        </mxCell>
        <mxCell id="LSWfNtZpds12nJW4Uo5Y-65" value="+ index(): Request" style="text;strokeColor=none;fillColor=none;align=left;verticalAlign=top;spacingLeft=4;spacingRight=4;overflow=hidden;rotatable=0;points=[[0,0.5],[1,0.5]];portConstraint=eastwest;whiteSpace=wrap;html=1;" parent="LSWfNtZpds12nJW4Uo5Y-29" vertex="1">
          <mxGeometry y="216" width="200" height="26" as="geometry" />
        </mxCell>
        <mxCell id="LSWfNtZpds12nJW4Uo5Y-66" value="+ show(Request request): Request" style="text;strokeColor=none;fillColor=none;align=left;verticalAlign=top;spacingLeft=4;spacingRight=4;overflow=hidden;rotatable=0;points=[[0,0.5],[1,0.5]];portConstraint=eastwest;whiteSpace=wrap;html=1;" parent="LSWfNtZpds12nJW4Uo5Y-29" vertex="1">
          <mxGeometry y="242" width="200" height="26" as="geometry" />
        </mxCell>
      </root>
    </mxGraphModel>
  </diagram>
  <diagram id="gyQtUmIAokovb6eyyy6d" name="Страница — 2">
    <mxGraphModel dx="978" dy="578" grid="0" gridSize="10" guides="1" tooltips="1" connect="1" arrows="1" fold="1" page="1" pageScale="1" pageWidth="827" pageHeight="1169" math="0" shadow="0">
      <root>
        <mxCell id="0" />
        <mxCell id="1" parent="0" />
        <mxCell id="dZumOwy5J4tMSfhWM1ES-1" style="edgeStyle=orthogonalEdgeStyle;rounded=0;orthogonalLoop=1;jettySize=auto;html=1;endArrow=none;endFill=0;" edge="1" parent="1" source="dZumOwy5J4tMSfhWM1ES-2" target="dZumOwy5J4tMSfhWM1ES-6">
          <mxGeometry relative="1" as="geometry" />
        </mxCell>
        <mxCell id="dZumOwy5J4tMSfhWM1ES-2" value="&amp;lt;&amp;lt;device&amp;gt;&amp;gt;&lt;div&gt;Клиентская часть&lt;/div&gt;" style="verticalAlign=top;align=left;spacingTop=8;spacingLeft=2;spacingRight=12;shape=cube;size=10;direction=south;fontStyle=4;html=1;whiteSpace=wrap;" vertex="1" parent="1">
          <mxGeometry x="290" y="252" width="180" height="120" as="geometry" />
        </mxCell>
        <mxCell id="dZumOwy5J4tMSfhWM1ES-6" value="&amp;lt;&amp;lt;device&amp;gt;&amp;gt;&lt;div&gt;Серверная часть&lt;/div&gt;" style="verticalAlign=top;align=left;spacingTop=8;spacingLeft=2;spacingRight=12;shape=cube;size=10;direction=south;fontStyle=4;html=1;whiteSpace=wrap;" vertex="1" parent="1">
          <mxGeometry x="290" y="80" width="180" height="120" as="geometry" />
        </mxCell>
        <mxCell id="dZumOwy5J4tMSfhWM1ES-7" style="edgeStyle=orthogonalEdgeStyle;rounded=0;orthogonalLoop=1;jettySize=auto;html=1;endArrow=none;endFill=0;" edge="1" parent="1" source="dZumOwy5J4tMSfhWM1ES-8" target="dZumOwy5J4tMSfhWM1ES-6">
          <mxGeometry relative="1" as="geometry" />
        </mxCell>
        <mxCell id="dZumOwy5J4tMSfhWM1ES-8" value="&amp;lt;&amp;lt;device&amp;gt;&amp;gt;&lt;div&gt;Сервер БД&lt;/div&gt;" style="verticalAlign=top;align=left;spacingTop=8;spacingLeft=2;spacingRight=12;shape=cube;size=10;direction=south;fontStyle=4;html=1;whiteSpace=wrap;" vertex="1" parent="1">
          <mxGeometry x="520" y="80" width="180" height="120" as="geometry" />
        </mxCell>
        <mxCell id="dZumOwy5J4tMSfhWM1ES-10" value="«artifact»&lt;br&gt;&lt;b&gt;db_schema.sql&lt;/b&gt;" style="html=1;whiteSpace=wrap;" vertex="1" parent="1">
          <mxGeometry x="550" y="130" width="110" height="50" as="geometry" />
        </mxCell>
        <mxCell id="dZumOwy5J4tMSfhWM1ES-11" value="«artifact»&lt;br&gt;&lt;b&gt;page.js&lt;/b&gt;" style="html=1;whiteSpace=wrap;" vertex="1" parent="1">
          <mxGeometry x="320" y="302" width="110" height="50" as="geometry" />
        </mxCell>
        <mxCell id="dZumOwy5J4tMSfhWM1ES-12" value="«artifact»&lt;br&gt;&lt;b&gt;index.php&lt;/b&gt;" style="html=1;whiteSpace=wrap;" vertex="1" parent="1">
          <mxGeometry x="320" y="130" width="110" height="50" as="geometry" />
        </mxCell>
        <mxCell id="dZumOwy5J4tMSfhWM1ES-13" value="port 80" style="text;html=1;align=center;verticalAlign=middle;resizable=0;points=[];autosize=1;strokeColor=none;fillColor=none;" vertex="1" parent="1">
          <mxGeometry x="380" y="210" width="60" height="30" as="geometry" />
        </mxCell>
      </root>
    </mxGraphModel>
  </diagram>
  <diagram id="cIOiRiQVlV2O92pJ4w0q" name="Страница — 3">
    <mxGraphModel dx="989" dy="589" grid="0" gridSize="10" guides="1" tooltips="1" connect="1" arrows="1" fold="1" page="1" pageScale="1" pageWidth="827" pageHeight="1169" math="0" shadow="0">
      <root>
        <mxCell id="0" />
        <mxCell id="1" parent="0" />
        <mxCell id="-iZUPdcEaP14EVm3duhd-10" style="rounded=0;orthogonalLoop=1;jettySize=auto;html=1;endArrow=none;endFill=0;" edge="1" parent="1" source="-iZUPdcEaP14EVm3duhd-1" target="-iZUPdcEaP14EVm3duhd-2">
          <mxGeometry relative="1" as="geometry" />
        </mxCell>
        <mxCell id="-iZUPdcEaP14EVm3duhd-11" style="rounded=0;orthogonalLoop=1;jettySize=auto;html=1;endArrow=none;endFill=0;" edge="1" parent="1" source="-iZUPdcEaP14EVm3duhd-1" target="-iZUPdcEaP14EVm3duhd-3">
          <mxGeometry relative="1" as="geometry" />
        </mxCell>
        <mxCell id="-iZUPdcEaP14EVm3duhd-12" style="rounded=0;orthogonalLoop=1;jettySize=auto;html=1;endArrow=none;endFill=0;" edge="1" parent="1" source="-iZUPdcEaP14EVm3duhd-1" target="-iZUPdcEaP14EVm3duhd-4">
          <mxGeometry relative="1" as="geometry" />
        </mxCell>
        <mxCell id="-iZUPdcEaP14EVm3duhd-1" value="Гость" style="shape=umlActor;verticalLabelPosition=bottom;verticalAlign=top;html=1;outlineConnect=0;" vertex="1" parent="1">
          <mxGeometry x="397" y="340" width="30" height="60" as="geometry" />
        </mxCell>
        <mxCell id="-iZUPdcEaP14EVm3duhd-2" value="Авторизация" style="ellipse;whiteSpace=wrap;html=1;" vertex="1" parent="1">
          <mxGeometry x="337" y="190" width="120" height="80" as="geometry" />
        </mxCell>
        <mxCell id="-iZUPdcEaP14EVm3duhd-3" value="Регистрация" style="ellipse;whiteSpace=wrap;html=1;" vertex="1" parent="1">
          <mxGeometry x="467" y="190" width="120" height="80" as="geometry" />
        </mxCell>
        <mxCell id="-iZUPdcEaP14EVm3duhd-4" value="Просмотр каталога" style="ellipse;whiteSpace=wrap;html=1;" vertex="1" parent="1">
          <mxGeometry x="497" y="300" width="120" height="80" as="geometry" />
        </mxCell>
        <mxCell id="-iZUPdcEaP14EVm3duhd-5" value="Добавление рыбы" style="ellipse;whiteSpace=wrap;html=1;" vertex="1" parent="1">
          <mxGeometry x="697" y="390" width="120" height="80" as="geometry" />
        </mxCell>
        <mxCell id="-iZUPdcEaP14EVm3duhd-6" value="Добавление запроса" style="ellipse;whiteSpace=wrap;html=1;" vertex="1" parent="1">
          <mxGeometry x="701" y="470" width="120" height="75" as="geometry" />
        </mxCell>
        <mxCell id="-iZUPdcEaP14EVm3duhd-7" value="Заказ рыбы&lt;span style=&quot;color: rgba(0, 0, 0, 0); font-family: monospace; font-size: 0px; text-align: start; text-wrap: nowrap;&quot;&gt;%3CmxGraphModel%3E%3Croot%3E%3CmxCell%20id%3D%220%22%2F%3E%3CmxCell%20id%3D%221%22%20parent%3D%220%22%2F%3E%3CmxCell%20id%3D%222%22%20value%3D%22%D0%94%D0%BE%D0%B1%D0%B0%D0%B2%D0%BB%D0%B5%D0%BD%D0%B8%D0%B5%20%D0%B7%D0%B0%D0%BF%D1%80%D0%BE%D1%81%D0%B0%22%20style%3D%22ellipse%3BwhiteSpace%3Dwrap%3Bhtml%3D1%3B%22%20vertex%3D%221%22%20parent%3D%221%22%3E%3CmxGeometry%20x%3D%22190%22%20y%3D%22430%22%20width%3D%22120%22%20height%3D%2280%22%20as%3D%22geometry%22%2F%3E%3C%2FmxCell%3E%3C%2Froot%3E%3C%2FmxGraphModel%3E&lt;/span&gt;" style="ellipse;whiteSpace=wrap;html=1;" vertex="1" parent="1">
          <mxGeometry x="497" y="480" width="120" height="80" as="geometry" />
        </mxCell>
        <mxCell id="-iZUPdcEaP14EVm3duhd-8" value="Удаление своей рыбы&lt;span style=&quot;color: rgba(0, 0, 0, 0); font-family: monospace; font-size: 0px; text-align: start; text-wrap: nowrap;&quot;&gt;%3CmxGraphModel%3E%3Croot%3E%3CmxCell%20id%3D%220%22%2F%3E%3CmxCell%20id%3D%221%22%20parent%3D%220%22%2F%3E%3CmxCell%20id%3D%222%22%20value%3D%22%D0%94%D0%BE%D0%B1%D0%B0%D0%B2%D0%BB%D0%B5%D0%BD%D0%B8%D0%B5%20%D0%B7%D0%B0%D0%BF%D1%80%D0%BE%D1%81%D0%B0%22%20style%3D%22ellipse%3BwhiteSpace%3Dwrap%3Bhtml%3D1%3B%22%20vertex%3D%221%22%20parent%3D%221%22%3E%3CmxGeometry%20x%3D%22190%22%20y%3D%22430%22%20width%3D%22120%22%20height%3D%2280%22%20as%3D%22geometry%22%2F%3E%3C%2FmxCell%3E%3C%2Froot%3E%3C%2FmxGraphModel%3E&lt;/span&gt;" style="ellipse;whiteSpace=wrap;html=1;" vertex="1" parent="1">
          <mxGeometry x="609" y="516" width="120" height="80" as="geometry" />
        </mxCell>
        <mxCell id="-iZUPdcEaP14EVm3duhd-9" value="Просмотр своих заказа&lt;span style=&quot;color: rgba(0, 0, 0, 0); font-family: monospace; font-size: 0px; text-align: start; text-wrap: nowrap;&quot;&gt;%3CmxGraphModel%3E%3Croot%3E%3CmxCell%20id%3D%220%22%2F%3E%3CmxCell%20id%3D%221%22%20parent%3D%220%22%2F%3E%3CmxCell%20id%3D%222%22%20value%3D%22%D0%94%D0%BE%D0%B1%D0%B0%D0%B2%D0%BB%D0%B5%D0%BD%D0%B8%D0%B5%20%D0%B7%D0%B0%D0%BF%D1%80%D0%BE%D1%81%D0%B0%22%20style%3D%22ellipse%3BwhiteSpace%3Dwrap%3Bhtml%3D1%3B%22%20vertex%3D%221%22%20parent%3D%221%22%3E%3CmxGeometry%20x%3D%22190%22%20y%3D%22430%22%20width%3D%22120%22%20height%3D%2280%22%20as%3D%22geometry%22%2F%3E%3C%2FmxCell%3E%3C%2Froot%3E%3C%2FmxGraphModel%3E&lt;/span&gt;" style="ellipse;whiteSpace=wrap;html=1;" vertex="1" parent="1">
          <mxGeometry x="317" y="590" width="120" height="80" as="geometry" />
        </mxCell>
        <mxCell id="-iZUPdcEaP14EVm3duhd-13" value="Просмотр рыбы&lt;span style=&quot;color: rgba(0, 0, 0, 0); font-family: monospace; font-size: 0px; text-align: start; text-wrap: nowrap;&quot;&gt;%3CmxGraphModel%3E%3Croot%3E%3CmxCell%20id%3D%220%22%2F%3E%3CmxCell%20id%3D%221%22%20parent%3D%220%22%2F%3E%3CmxCell%20id%3D%222%22%20value%3D%22%D0%9F%D1%80%D0%BE%D1%81%D0%BC%D0%BE%D1%82%D1%80%20%D0%BA%D0%B0%D1%82%D0%B0%D0%BB%D0%BE%D0%B3%D0%B0%22%20style%3D%22ellipse%3BwhiteSpace%3Dwrap%3Bhtml%3D1%3B%22%20vertex%3D%221%22%20parent%3D%221%22%3E%3CmxGeometry%20x%3D%22190%22%20y%3D%22330%22%20width%3D%22120%22%20height%3D%2280%22%20as%3D%22geometry%22%2F%3E%3C%2FmxCell%3E%3C%2Froot%3E%3C%2FmxGraphModel%3E&lt;/span&gt;" style="ellipse;whiteSpace=wrap;html=1;" vertex="1" parent="1">
          <mxGeometry x="687" y="210" width="120" height="80" as="geometry" />
        </mxCell>
        <mxCell id="-iZUPdcEaP14EVm3duhd-14" value="Просмотр запроса" style="ellipse;whiteSpace=wrap;html=1;" vertex="1" parent="1">
          <mxGeometry x="687" y="300" width="120" height="80" as="geometry" />
        </mxCell>
        <mxCell id="-iZUPdcEaP14EVm3duhd-18" value="&amp;lt;&amp;lt;extend&amp;gt;&amp;gt;" style="html=1;verticalAlign=bottom;labelBackgroundColor=none;endArrow=open;endFill=0;dashed=1;rounded=0;" edge="1" parent="1" source="-iZUPdcEaP14EVm3duhd-14" target="-iZUPdcEaP14EVm3duhd-4">
          <mxGeometry width="160" relative="1" as="geometry">
            <mxPoint x="667" y="420" as="sourcePoint" />
            <mxPoint x="827" y="420" as="targetPoint" />
          </mxGeometry>
        </mxCell>
        <mxCell id="-iZUPdcEaP14EVm3duhd-19" value="&amp;lt;&amp;lt;extend&amp;gt;&amp;gt;" style="html=1;verticalAlign=bottom;labelBackgroundColor=none;endArrow=open;endFill=0;dashed=1;rounded=0;" edge="1" parent="1" source="-iZUPdcEaP14EVm3duhd-13" target="-iZUPdcEaP14EVm3duhd-4">
          <mxGeometry width="160" relative="1" as="geometry">
            <mxPoint x="777" y="384" as="sourcePoint" />
            <mxPoint x="627" y="396" as="targetPoint" />
          </mxGeometry>
        </mxCell>
        <mxCell id="-iZUPdcEaP14EVm3duhd-21" style="rounded=0;orthogonalLoop=1;jettySize=auto;html=1;endArrow=none;endFill=0;" edge="1" parent="1" source="-iZUPdcEaP14EVm3duhd-20" target="-iZUPdcEaP14EVm3duhd-4">
          <mxGeometry relative="1" as="geometry" />
        </mxCell>
        <mxCell id="-iZUPdcEaP14EVm3duhd-23" style="rounded=0;orthogonalLoop=1;jettySize=auto;html=1;endArrow=none;endFill=0;" edge="1" parent="1" source="-iZUPdcEaP14EVm3duhd-20" target="-iZUPdcEaP14EVm3duhd-7">
          <mxGeometry relative="1" as="geometry" />
        </mxCell>
        <mxCell id="-iZUPdcEaP14EVm3duhd-25" style="rounded=0;orthogonalLoop=1;jettySize=auto;html=1;endArrow=none;endFill=0;" edge="1" parent="1" source="-iZUPdcEaP14EVm3duhd-20" target="-iZUPdcEaP14EVm3duhd-9">
          <mxGeometry relative="1" as="geometry" />
        </mxCell>
        <mxCell id="-iZUPdcEaP14EVm3duhd-30" style="rounded=0;orthogonalLoop=1;jettySize=auto;html=1;endArrow=none;endFill=0;" edge="1" parent="1" source="-iZUPdcEaP14EVm3duhd-20" target="-iZUPdcEaP14EVm3duhd-29">
          <mxGeometry relative="1" as="geometry" />
        </mxCell>
        <mxCell id="-iZUPdcEaP14EVm3duhd-20" value="Авторизованный пользователь" style="shape=umlActor;verticalLabelPosition=bottom;verticalAlign=top;html=1;outlineConnect=0;" vertex="1" parent="1">
          <mxGeometry x="397" y="430" width="30" height="60" as="geometry" />
        </mxCell>
        <mxCell id="-iZUPdcEaP14EVm3duhd-27" value="Удаление своего заказа&lt;span style=&quot;color: rgba(0, 0, 0, 0); font-family: monospace; font-size: 0px; text-align: start; text-wrap: nowrap;&quot;&gt;%3CmxGraphModel%3E%3Croot%3E%3CmxCell%20id%3D%220%22%2F%3E%3CmxCell%20id%3D%221%22%20parent%3D%220%22%2F%3E%3CmxCell%20id%3D%222%22%20value%3D%22%D0%94%D0%BE%D0%B1%D0%B0%D0%B2%D0%BB%D0%B5%D0%BD%D0%B8%D0%B5%20%D0%B7%D0%B0%D0%BF%D1%80%D0%BE%D1%81%D0%B0%22%20style%3D%22ellipse%3BwhiteSpace%3Dwrap%3Bhtml%3D1%3B%22%20vertex%3D%221%22%20parent%3D%221%22%3E%3CmxGeometry%20x%3D%22190%22%20y%3D%22430%22%20width%3D%22120%22%20height%3D%2280%22%20as%3D%22geometry%22%2F%3E%3C%2FmxCell%3E%3C%2Froot%3E%3C%2FmxGraphModel%3E&lt;/span&gt;" style="ellipse;whiteSpace=wrap;html=1;" vertex="1" parent="1">
          <mxGeometry x="497" y="590" width="120" height="80" as="geometry" />
        </mxCell>
        <mxCell id="-iZUPdcEaP14EVm3duhd-28" value="&amp;lt;&amp;lt;extend&amp;gt;&amp;gt;" style="html=1;verticalAlign=bottom;labelBackgroundColor=none;endArrow=open;endFill=0;dashed=1;rounded=0;" edge="1" parent="1" source="-iZUPdcEaP14EVm3duhd-27" target="-iZUPdcEaP14EVm3duhd-9">
          <mxGeometry width="160" relative="1" as="geometry">
            <mxPoint x="518" y="464" as="sourcePoint" />
            <mxPoint x="356" y="446" as="targetPoint" />
          </mxGeometry>
        </mxCell>
        <mxCell id="-iZUPdcEaP14EVm3duhd-29" value="Просмотр своего профиля" style="ellipse;whiteSpace=wrap;html=1;" vertex="1" parent="1">
          <mxGeometry x="507" y="390" width="120" height="80" as="geometry" />
        </mxCell>
        <mxCell id="-iZUPdcEaP14EVm3duhd-31" value="&amp;lt;&amp;lt;extend&amp;gt;&amp;gt;" style="html=1;verticalAlign=bottom;labelBackgroundColor=none;endArrow=open;endFill=0;dashed=1;rounded=0;" edge="1" parent="1" source="-iZUPdcEaP14EVm3duhd-5" target="-iZUPdcEaP14EVm3duhd-29">
          <mxGeometry width="160" relative="1" as="geometry">
            <mxPoint x="788" y="424" as="sourcePoint" />
            <mxPoint x="626" y="406" as="targetPoint" />
          </mxGeometry>
        </mxCell>
        <mxCell id="-iZUPdcEaP14EVm3duhd-32" value="&amp;lt;&amp;lt;extend&amp;gt;&amp;gt;" style="html=1;verticalAlign=bottom;labelBackgroundColor=none;endArrow=open;endFill=0;dashed=1;rounded=0;" edge="1" parent="1" source="-iZUPdcEaP14EVm3duhd-6" target="-iZUPdcEaP14EVm3duhd-29">
          <mxGeometry width="160" relative="1" as="geometry">
            <mxPoint x="798" y="434" as="sourcePoint" />
            <mxPoint x="636" y="416" as="targetPoint" />
          </mxGeometry>
        </mxCell>
        <mxCell id="-iZUPdcEaP14EVm3duhd-33" value="&amp;lt;&amp;lt;extend&amp;gt;&amp;gt;" style="html=1;verticalAlign=bottom;labelBackgroundColor=none;endArrow=open;endFill=0;dashed=1;rounded=0;" edge="1" parent="1" source="-iZUPdcEaP14EVm3duhd-8" target="-iZUPdcEaP14EVm3duhd-29">
          <mxGeometry width="160" relative="1" as="geometry">
            <mxPoint x="808" y="444" as="sourcePoint" />
            <mxPoint x="646" y="426" as="targetPoint" />
          </mxGeometry>
        </mxCell>
        <mxCell id="-iZUPdcEaP14EVm3duhd-35" style="rounded=0;orthogonalLoop=1;jettySize=auto;html=1;endArrow=block;endFill=0;" edge="1" parent="1" source="-iZUPdcEaP14EVm3duhd-34" target="-iZUPdcEaP14EVm3duhd-20">
          <mxGeometry relative="1" as="geometry" />
        </mxCell>
        <mxCell id="-iZUPdcEaP14EVm3duhd-38" style="rounded=0;orthogonalLoop=1;jettySize=auto;html=1;endArrow=none;endFill=0;" edge="1" parent="1" source="-iZUPdcEaP14EVm3duhd-34" target="-iZUPdcEaP14EVm3duhd-37">
          <mxGeometry relative="1" as="geometry" />
        </mxCell>
        <mxCell id="-iZUPdcEaP14EVm3duhd-34" value="Администратор" style="shape=umlActor;verticalLabelPosition=bottom;verticalAlign=top;html=1;outlineConnect=0;" vertex="1" parent="1">
          <mxGeometry x="257" y="430" width="30" height="60" as="geometry" />
        </mxCell>
        <mxCell id="-iZUPdcEaP14EVm3duhd-37" value="Просмотр админ-панели" style="ellipse;whiteSpace=wrap;html=1;" vertex="1" parent="1">
          <mxGeometry x="210" y="310" width="120" height="80" as="geometry" />
        </mxCell>
        <mxCell id="-iZUPdcEaP14EVm3duhd-39" value="Удаление пользователей" style="ellipse;whiteSpace=wrap;html=1;" vertex="1" parent="1">
          <mxGeometry x="210" y="190" width="120" height="80" as="geometry" />
        </mxCell>
        <mxCell id="-iZUPdcEaP14EVm3duhd-40" value="Удаление названий рыб" style="ellipse;whiteSpace=wrap;html=1;" vertex="1" parent="1">
          <mxGeometry x="20" y="330" width="120" height="80" as="geometry" />
        </mxCell>
        <mxCell id="-iZUPdcEaP14EVm3duhd-41" value="Добавление названий рыб" style="ellipse;whiteSpace=wrap;html=1;" vertex="1" parent="1">
          <mxGeometry x="50" y="240" width="120" height="80" as="geometry" />
        </mxCell>
        <mxCell id="-iZUPdcEaP14EVm3duhd-42" value="&amp;lt;&amp;lt;extend&amp;gt;&amp;gt;" style="html=1;verticalAlign=bottom;labelBackgroundColor=none;endArrow=open;endFill=0;dashed=1;rounded=0;" edge="1" parent="1" source="-iZUPdcEaP14EVm3duhd-39" target="-iZUPdcEaP14EVm3duhd-37">
          <mxGeometry width="160" relative="1" as="geometry">
            <mxPoint x="53" y="290" as="sourcePoint" />
            <mxPoint x="-39" y="334" as="targetPoint" />
          </mxGeometry>
        </mxCell>
        <mxCell id="-iZUPdcEaP14EVm3duhd-43" value="&amp;lt;&amp;lt;extend&amp;gt;&amp;gt;" style="html=1;verticalAlign=bottom;labelBackgroundColor=none;endArrow=open;endFill=0;dashed=1;rounded=0;" edge="1" parent="1" source="-iZUPdcEaP14EVm3duhd-41" target="-iZUPdcEaP14EVm3duhd-37">
          <mxGeometry width="160" relative="1" as="geometry">
            <mxPoint x="147" y="389" as="sourcePoint" />
            <mxPoint x="157" y="431" as="targetPoint" />
          </mxGeometry>
        </mxCell>
        <mxCell id="-iZUPdcEaP14EVm3duhd-44" value="&amp;lt;&amp;lt;extend&amp;gt;&amp;gt;" style="html=1;verticalAlign=bottom;labelBackgroundColor=none;endArrow=open;endFill=0;dashed=1;rounded=0;" edge="1" parent="1" source="-iZUPdcEaP14EVm3duhd-40" target="-iZUPdcEaP14EVm3duhd-37">
          <mxGeometry width="160" relative="1" as="geometry">
            <mxPoint x="157" y="399" as="sourcePoint" />
            <mxPoint x="167" y="441" as="targetPoint" />
          </mxGeometry>
        </mxCell>
      </root>
    </mxGraphModel>
  </diagram>
</mxfile>
